<?xml version="1.0" encoding="utf-8"?>
<!-- Generator: Adobe Illustrator 16.0.0, SVG Export Plug-In . SVG Version: 6.00 Build 0)  -->
<!DOCTYPE svg PUBLIC "-//W3C//DTD SVG 1.1//EN" "http://www.w3.org/Graphics/SVG/1.1/DTD/svg11.dtd">
<svg version="1.1" id="Layer_1" xmlns="http://www.w3.org/2000/svg" xmlns:xlink="http://www.w3.org/1999/xlink" x="0px" y="0px"
	 width="50px" height="50px" viewBox="395.944 272.641 50 50" enable-background="new 395.944 272.641 50 50" xml:space="preserve">
<g>
	<path fill="#EF4123" stroke="#FFFFFF" stroke-width="0.25" stroke-miterlimit="10" d="M422.948,274.529
		c-0.5,0-1.001,0.401-1.001,1.002v21.049c0,0.501,0.4,1.003,1.001,1.003h21.05c0.502,0,1.003-0.401,1.003-1.003
		C445.001,284.453,435.077,274.529,422.948,274.529z M423.951,295.579v-19.044c10.224,0.501,18.543,8.72,19.045,19.044H423.951
		L423.951,295.579z"/>
</g>
<g>
	<path fill="#333333" stroke="#FFFFFF" stroke-width="0.25" stroke-miterlimit="10" d="M439.889,299.588h-19.946v-20.047
		c0-0.501-0.401-1.002-1.003-1.002c-12.128,0.1-22.051,9.923-22.051,22.051c0,12.129,9.923,22.051,22.051,22.051
		c12.129,0,22.052-9.922,22.052-22.051C440.892,300.088,440.49,299.588,439.889,299.588z M418.939,320.637
		c-11.025,0-20.046-9.02-20.046-20.047c0-10.725,8.419-19.445,19.044-20.047v20.047c0,0.502,0.401,1.002,1.002,1.002h20.047
		C438.385,312.217,429.665,320.637,418.939,320.637z"/>
</g>
<g>
	<path fill="#333333" stroke="#FFFFFF" stroke-width="0.25" stroke-miterlimit="10" d="M401.6,299.588
		c-0.501,0-1.003,0.4-1.003,1.002c0,1.002,0.101,1.906,0.201,2.906c0.1,0.502,0.501,0.803,1.002,0.803c0.1,0,0.1,0,0.2,0
		c0.501-0.1,0.902-0.602,0.802-1.104c-0.1-0.9-0.2-1.703-0.2-2.605C402.602,300.088,402.101,299.588,401.6,299.588z"/>
</g>
<g>
	<path fill="#333333" stroke="#FFFFFF" stroke-width="0.25" stroke-miterlimit="10" d="M412.725,283.45
		c-5.813,2.105-10.124,6.916-11.627,12.83c-0.101,0.501,0.2,1.103,0.702,1.203c0.1,0,0.2,0,0.2,0c0.401,0,0.902-0.301,1.002-0.802
		c1.303-5.313,5.112-9.623,10.324-11.527c0.602-0.101,0.802-0.602,0.602-1.103C413.727,283.55,413.227,283.25,412.725,283.45z"/>
</g>
</svg>
