<?xml version="1.0" encoding="utf-8"?>
<!-- Generator: Adobe Illustrator 19.1.0, SVG Export Plug-In . SVG Version: 6.00 Build 0)  -->
<svg version="1.1" id="Layer_1" xmlns="http://www.w3.org/2000/svg" xmlns:xlink="http://www.w3.org/1999/xlink" x="0px" y="0px"
	 viewBox="213.2 119.4 413.3 263.7" style="enable-background:new 213.2 119.4 413.3 263.7;" xml:space="preserve">
<style type="text/css">
	.st0{fill:#333333;stroke:#FCFCFC;stroke-width:2;stroke-miterlimit:10;}
	.st1{fill:#EF4123;stroke:#FCFCFC;stroke-width:2;stroke-miterlimit:10;}
</style>
<g>
	<path class="st0" d="M598.9,120.4h-358c-14.7,0-26.7,12-26.7,26.7v208.3c0,14.7,12,26.7,26.7,26.7h358c14.7,0,26.7-12,26.7-26.7
		V147.1C625.6,132.4,613.5,120.4,598.9,120.4z M613,355.3c0,7.8-6.3,14.1-14.1,14.1h-358c-7.8,0-14.1-6.3-14.1-14.1V147.1
		c0-7.8,6.3-14.1,14.1-14.1h358c7.9,0,14.1,6.3,14.1,14.1V355.3z"/>
	<rect x="255.6" y="259.6" class="st0" width="71.7" height="12.6"/>
	<rect x="255.6" y="314.5" class="st0" width="156.5" height="12.6"/>
	<rect x="416.2" y="198.3" class="st0" width="76.4" height="12.6"/>
	<rect x="416.2" y="170.1" class="st0" width="152.8" height="12.6"/>
	<rect x="345.1" y="259.6" class="st0" width="71.7" height="12.6"/>
	<rect x="434.6" y="259.6" class="st0" width="71.7" height="12.6"/>
	<rect x="524.6" y="259.6" class="st0" width="71.7" height="12.6"/>
	<path class="st1" d="M358.1,235c3.7,0,6.3-2.6,6.3-6.3v-67c0-3.7-2.6-6.3-6.3-6.3h-100c-3.7,0-6.3,2.6-6.3,6.3v67
		c0,3.7,2.6,6.3,6.3,6.3H358.1z M351.9,168v10.5h-22.5c-3.7,0-6.3,2.6-6.3,6.3s2.6,6.3,6.3,6.3h22.5v8.4h-22.5
		c-3.7,0-6.3,2.6-6.3,6.3s2.6,6.3,6.3,6.3h22.5v10.5h-87.4v-10.5H287c3.7,0,6.3-2.6,6.3-6.3s-2.6-6.3-6.3-6.3h-22.5V191H287
		c3.7,0,6.3-2.6,6.3-6.3s-2.6-6.3-6.3-6.3h-22.5V168H351.9z"/>
	<path class="st1" d="M562.2,291c-9.4,0-17.8,4.2-23,11.5c-5.2-6.8-13.6-11.5-23-11.5c-16.2,0-29.8,13.1-29.8,29.8
		c0,16.2,13.1,29.8,29.8,29.8c9.4,0,17.8-4.2,23-11.5c5.2,6.8,13.6,11.5,23,11.5c16.2,0,29.8-13.1,29.8-29.8
		C592.1,304.1,578.5,291,562.2,291z M515.7,337.5c-9.4,0-17.3-7.8-17.3-17.3c0-9.4,7.8-17.3,17.3-17.3c8.9,0,16.2,6.8,16.7,15.7
		c0,0.5,0,1,0,1.6c0,0.5,0,1,0,1.6C531.9,330.7,524.6,337.5,515.7,337.5z M562.2,337.5c-8.9,0-16.2-6.8-16.7-15.7c0-0.5,0-1,0-1.6
		c0-0.5,0-1,0-1.6c0.5-8.9,7.8-15.7,16.7-15.7c9.4,0,17.3,7.8,17.3,17.3C579.5,330.2,571.7,337.5,562.2,337.5z"/>
</g>
</svg>
