<?xml version="1.0" encoding="utf-8"?>
<!-- Generator: Adobe Illustrator 16.0.0, SVG Export Plug-In . SVG Version: 6.00 Build 0)  -->
<!DOCTYPE svg PUBLIC "-//W3C//DTD SVG 1.1//EN" "http://www.w3.org/Graphics/SVG/1.1/DTD/svg11.dtd">
<svg version="1.1" id="Layer_3" xmlns="http://www.w3.org/2000/svg" xmlns:xlink="http://www.w3.org/1999/xlink" x="0px" y="0px"
	 width="50px" height="50px" viewBox="155 155 50 50" enable-background="new 155 155 50 50" xml:space="preserve">
<g>
	<path fill="#EF4123" stroke="#FFFFFF" stroke-width="0.25" stroke-miterlimit="10" d="M196.006,188.838l-9.222-2.729v-6.952
		c-0.002-1.679-1.354-3.372-3.354-3.37l0,0c-1.845,0-3.353,1.52-3.353,3.37v12.119l-0.287,0.145
		c-1.861,0.936-2.759,3.116-2.102,5.098l2.432,7.332c0.114,0.346,0.436,0.578,0.798,0.577h16.748c0.401,0,0.747-0.285,0.825-0.678
		l1.608-8.099C200.694,192.666,198.913,189.699,196.006,188.838z M198.451,195.322l-1.475,7.421h-15.447l-2.242-6.76
		c-0.399-1.199,0.14-2.496,1.259-3.059l0.751-0.378c0.286-0.146,0.464-0.436,0.464-0.755v-12.634c0-0.943,0.739-1.686,1.668-1.686
		c0.001,0,0.004,0,0.004,0c1.041,0,1.665,0.908,1.668,1.689v7.577c0,0.374,0.244,0.705,0.6,0.811l9.826,2.904
		C197.612,191.068,198.877,193.173,198.451,195.322z"/>
	<g>
		<path fill="#333333" stroke="#FFFFFF" stroke-width="0.25" stroke-miterlimit="10" d="M163.155,155.573
			c-1.851,0-3.37,1.519-3.37,3.368c0,1.852,1.519,3.371,3.37,3.371c1.852,0,3.369-1.519,3.369-3.371
			C166.523,157.092,165.006,155.573,163.155,155.573z M163.155,160.625c-0.941,0-1.686-0.743-1.686-1.685
			c0-0.939,0.744-1.684,1.686-1.684c0.94,0,1.685,0.744,1.685,1.684C164.839,159.883,164.095,160.625,163.155,160.625z"/>
		<path fill="#333333" stroke="#FFFFFF" stroke-width="0.25" stroke-miterlimit="10" d="M173.262,155.573
			c-1.85,0-3.369,1.519-3.369,3.368c0,1.852,1.519,3.371,3.369,3.371c1.853,0,3.37-1.519,3.37-3.371
			C176.631,157.092,175.114,155.573,173.262,155.573z M173.262,160.625c-0.939,0-1.684-0.743-1.684-1.685
			c0-0.939,0.745-1.684,1.684-1.684c0.941,0,1.686,0.744,1.686,1.684C174.947,159.883,174.203,160.625,173.262,160.625z"/>
		<path fill="#333333" stroke="#FFFFFF" stroke-width="0.25" stroke-miterlimit="10" d="M183.37,162.312
			c1.851,0,3.369-1.519,3.369-3.371c0-1.849-1.519-3.368-3.369-3.368c-1.852,0-3.368,1.519-3.368,3.368
			C180.002,160.792,181.519,162.312,183.37,162.312z M183.37,157.257c0.939,0,1.684,0.744,1.684,1.684
			c0,0.942-0.744,1.685-1.684,1.685c-0.94,0-1.685-0.743-1.685-1.685C181.686,158.001,182.43,157.257,183.37,157.257z"/>
		<path fill="#333333" stroke="#FFFFFF" stroke-width="0.25" stroke-miterlimit="10" d="M163.155,165.681
			c-1.851,0-3.37,1.517-3.37,3.369c0,1.851,1.519,3.37,3.37,3.37c1.852,0,3.369-1.519,3.369-3.37
			C166.523,167.198,165.006,165.681,163.155,165.681z M163.155,170.734c-0.941,0-1.686-0.745-1.686-1.684
			c0-0.94,0.744-1.685,1.686-1.685c0.94,0,1.685,0.744,1.685,1.685C164.839,169.989,164.095,170.734,163.155,170.734z"/>
		<path fill="#333333" stroke="#FFFFFF" stroke-width="0.25" stroke-miterlimit="10" d="M173.262,165.681
			c-1.85,0-3.369,1.517-3.369,3.369c0,1.851,1.519,3.37,3.369,3.37c1.853,0,3.37-1.519,3.37-3.37
			C176.631,167.198,175.114,165.681,173.262,165.681z M173.262,170.734c-0.939,0-1.684-0.745-1.684-1.684
			c0-0.94,0.745-1.685,1.684-1.685c0.941,0,1.686,0.744,1.686,1.685C174.947,169.989,174.203,170.734,173.262,170.734z"/>
		<path fill="#333333" stroke="#FFFFFF" stroke-width="0.25" stroke-miterlimit="10" d="M183.37,165.681
			c-1.852,0-3.368,1.517-3.368,3.369c0,1.851,1.517,3.37,3.368,3.37c1.851,0,3.369-1.519,3.369-3.37
			C186.739,167.198,185.221,165.681,183.37,165.681z M183.37,170.734c-0.94,0-1.685-0.745-1.685-1.684
			c0-0.94,0.744-1.685,1.685-1.685c0.939,0,1.684,0.744,1.684,1.685C185.054,169.989,184.31,170.734,183.37,170.734z"/>
		<path fill="#333333" stroke="#FFFFFF" stroke-width="0.25" stroke-miterlimit="10" d="M163.155,175.788
			c-1.851,0-3.37,1.519-3.37,3.37c0,1.851,1.519,3.368,3.37,3.368c1.852,0,3.369-1.517,3.369-3.368
			C166.523,177.307,165.006,175.788,163.155,175.788z M163.155,180.842c-0.941,0-1.686-0.744-1.686-1.684
			c0-0.941,0.744-1.684,1.686-1.684c0.94,0,1.685,0.743,1.685,1.684C164.839,180.098,164.095,180.842,163.155,180.842z"/>
		<path fill="#333333" stroke="#FFFFFF" stroke-width="0.25" stroke-miterlimit="10" d="M173.262,175.788
			c-1.85,0-3.369,1.519-3.369,3.37c0,1.851,1.519,3.368,3.369,3.368c1.853,0,3.37-1.517,3.37-3.368
			C176.631,177.307,175.114,175.788,173.262,175.788z M173.262,180.842c-0.939,0-1.684-0.744-1.684-1.684
			c0-0.941,0.745-1.684,1.684-1.684c0.941,0,1.686,0.743,1.686,1.684C174.947,180.098,174.203,180.842,173.262,180.842z"/>
	</g>
</g>
</svg>
