<?xml version="1.0" encoding="utf-8"?>
<!-- Generator: Adobe Illustrator 16.0.0, SVG Export Plug-In . SVG Version: 6.00 Build 0)  -->
<!DOCTYPE svg PUBLIC "-//W3C//DTD SVG 1.1//EN" "http://www.w3.org/Graphics/SVG/1.1/DTD/svg11.dtd">
<svg version="1.1" id="Layer_3" xmlns="http://www.w3.org/2000/svg" xmlns:xlink="http://www.w3.org/1999/xlink" x="0px" y="0px"
	 width="360px" height="360px" viewBox="0 0 360 360" enable-background="new 0 0 360 360" xml:space="preserve">
<g>
	<g>
		<g>
			<path fill="#FFFFFF" d="M180.749,357.5c-47.613,0-92.375-18.541-126.041-52.208C21.041,271.625,2.5,226.862,2.5,179.249
				c0-47.613,18.542-92.373,52.208-126.041C88.376,19.541,133.136,1,180.749,1c47.611,0,92.376,18.54,126.043,52.207
				C340.459,86.875,359,131.637,359,179.25s-18.541,92.375-52.208,126.042S228.36,357.5,180.749,357.5z M180.749,16.23
				c-43.544,0-84.481,16.958-115.271,47.747c-30.791,30.79-47.749,71.729-47.749,115.271c0,43.543,16.958,84.482,47.749,115.273
				c30.79,30.79,71.727,47.747,115.271,47.747c43.543,0,84.481-16.957,115.272-47.747c30.79-30.791,47.747-71.728,47.747-115.273
				c0-43.543-16.957-84.481-47.747-115.271C265.23,33.188,224.295,16.23,180.749,16.23z"/>
			<rect x="159.941" y="141.792" fill="#FFFFFF" width="33.293" height="133.177"/>
			<rect x="159.941" y="91.852" fill="#FFFFFF" width="33.293" height="33.295"/>
		</g>
	</g>
</g>
</svg>
