<?xml version="1.0" encoding="utf-8"?>
<!-- Generator: Adobe Illustrator 16.0.0, SVG Export Plug-In . SVG Version: 6.00 Build 0)  -->
<!DOCTYPE svg PUBLIC "-//W3C//DTD SVG 1.1//EN" "http://www.w3.org/Graphics/SVG/1.1/DTD/svg11.dtd">
<svg version="1.1" id="Layer_3" xmlns="http://www.w3.org/2000/svg" xmlns:xlink="http://www.w3.org/1999/xlink" x="0px" y="0px"
	 width="360px" height="360px" viewBox="0 0 360 360" enable-background="new 0 0 360 360" xml:space="preserve">
<g>
	<g>
		<g>
			<path fill="#666666" d="M180,354.5C83.78,354.5,5.5,276.221,5.5,180C5.5,83.78,83.78,5.5,180,5.5S354.5,83.78,354.5,180
				C354.5,276.217,276.216,354.5,180,354.5z M180,17.105C90.178,17.105,17.104,90.178,17.104,180
				c0,89.819,73.074,162.896,162.896,162.896c89.82,0,162.896-73.074,162.896-162.896S269.819,17.105,180,17.105z"/>
		</g>
	</g>
	<g>
		<g>
			<g>
				<path fill="#666666" d="M157.635,271.666h16.023c15.828,0,28.707-12.88,28.707-28.708v-89.035h-44.73V271.666z M173.655,259.479
					h-3.837v-93.369h20.356v76.847C190.174,252.066,182.763,259.479,173.655,259.479z"/>
			</g>
		</g>
	</g>
	<g>
		<g>
			<path fill="#EF4123" d="M180,88.333c-12.411,0-22.507,10.097-22.507,22.507c0,12.415,10.097,22.513,22.507,22.513
				c12.412,0,22.508-10.099,22.508-22.513C202.508,98.429,192.411,88.333,180,88.333z M180,121.167
				c-5.691,0-10.322-4.632-10.322-10.327c0-5.691,4.631-10.322,10.322-10.322c5.692,0,10.324,4.63,10.324,10.322
				C190.323,116.535,185.691,121.167,180,121.167z"/>
		</g>
	</g>
</g>
</svg>
