<?xml version="1.0" encoding="utf-8"?>
<!-- Generator: Adobe Illustrator 16.0.0, SVG Export Plug-In . SVG Version: 6.00 Build 0)  -->
<!DOCTYPE svg PUBLIC "-//W3C//DTD SVG 1.1//EN" "http://www.w3.org/Graphics/SVG/1.1/DTD/svg11.dtd">
<svg version="1.1" id="Layer_1" xmlns="http://www.w3.org/2000/svg" xmlns:xlink="http://www.w3.org/1999/xlink" x="0px" y="0px"
	 width="50px" height="50px" viewBox="395.944 272.641 50 50" enable-background="new 395.944 272.641 50 50" xml:space="preserve">
<g>
	<path fill="#333333" stroke="#333333" stroke-width="0.25" stroke-miterlimit="10" d="M408.246,299.209
		c-0.834,0.442-5.107,2.603-9.084,5.844c-0.589,0.491-0.982,1.228-0.982,2.062v4.42c0,0.295-0.196,0.49-0.491,0.49
		s-0.491-0.195-0.491-0.49v-4.42c0-1.079,0.491-2.112,1.326-2.799c3.879-3.191,8.103-5.352,9.183-5.893v-5.893
		c-0.834-0.638-1.276-1.621-1.276-2.651v-6.433c0-3.487,2.848-6.286,6.286-6.286h1.375c3.487,0,6.286,2.848,6.286,6.286v6.433
		c0,1.031-0.491,2.013-1.276,2.651v5.844c1.081,0.54,5.254,2.7,9.182,5.893c0.835,0.687,1.326,1.719,1.326,2.799v4.419
		c0,0.296-0.196,0.491-0.491,0.491c-0.294,0-0.491-0.195-0.491-0.491v-4.419c0-0.785-0.344-1.522-0.982-2.062
		c-3.977-3.29-8.249-5.45-9.084-5.844c-0.246-0.146-0.442-0.393-0.442-0.688v-6.187c0-0.148,0.098-0.295,0.196-0.394
		c0.688-0.441,1.081-1.228,1.081-2.013v-6.433c0-2.946-2.406-5.304-5.304-5.304h-1.375c-2.947,0-5.304,2.406-5.304,5.304v6.433
		c0,0.785,0.393,1.571,1.08,2.013c0.147,0.099,0.197,0.246,0.197,0.394v6.236C408.688,298.817,408.491,299.111,408.246,299.209z
		 M443.995,305.594c-3.095-2.603-6.482-4.321-7.416-4.812v-4.665c0.688-0.541,1.081-1.375,1.081-2.21v-5.254
		c0-2.898-2.357-5.206-5.206-5.206h-1.128c-2.898,0-5.206,2.357-5.206,5.206v5.254c0,0.884,0.394,1.669,1.081,2.21v3.928
		c0,0.295,0.196,0.491,0.49,0.491c0.295,0,0.491-0.196,0.491-0.491v-4.173c0-0.147-0.098-0.294-0.196-0.393
		c-0.54-0.344-0.835-0.934-0.835-1.572v-5.254c0-2.357,1.915-4.224,4.223-4.224h1.13c2.357,0,4.224,1.916,4.224,4.224v5.254
		c0,0.638-0.295,1.228-0.836,1.572c-0.147,0.098-0.196,0.245-0.196,0.393v5.057c0,0.296,0.147,0.541,0.394,0.64
		c0.688,0.343,4.174,2.111,7.366,4.763c0.491,0.393,0.736,0.981,0.736,1.571v3.584c0,0.296,0.195,0.491,0.49,0.491
		c0.296,0,0.492-0.195,0.492-0.491v-3.584C445.123,307.018,444.731,306.134,443.995,305.594z"/>
</g>
<path fill="#EF4123" stroke="#EF4123" stroke-width="0.25" stroke-miterlimit="10" d="M415.218,302.205l0.688,14.928
	c0,0.147-0.049,0.295-0.147,0.394l-2.063,1.865c-0.098,0.099-0.196,0.147-0.343,0.147c-0.098,0-0.246-0.049-0.344-0.147
	l-2.062-1.865c-0.099-0.098-0.147-0.246-0.147-0.394l0.639-15.124c-0.393-0.442-0.688-1.081-0.688-1.72
	c0-0.294,0.196-0.49,0.491-0.49c0.295,0,0.491,0.196,0.491,0.49c0,0.935,0.737,1.671,1.67,1.671c0.343,0,0.687-0.1,0.982-0.295l0,0
	c0.393-0.295,0.688-0.786,0.688-1.326c0-0.295,0.196-0.491,0.491-0.491c0.295,0,0.491,0.196,0.491,0.491
	C416.053,301.075,415.709,301.714,415.218,302.205z"/>
<path fill="#FFFFFF" stroke="#FFFFFF" stroke-width="0.25" stroke-miterlimit="10" d="M414.286,302.795
	c-0.294,0.098-0.59,0.147-0.884,0.147c-0.344,0-0.688-0.05-0.982-0.197l-0.638,14.24l1.571,1.375l1.571-1.424L414.286,302.795z"/>
</svg>
